<svg xmlns="http://www.w3.org/2000/svg" xmlns:xlink="http://www.w3.org/1999/xlink" viewBox="0,0,256,256" width="24px" height="24px" fill-rule="nonzero"><g fill="#ffffff" fill-rule="nonzero" stroke="none" stroke-width="1" stroke-linecap="butt" stroke-linejoin="miter" stroke-miterlimit="10" stroke-dasharray="" stroke-dashoffset="0" font-family="none" font-weight="none" font-size="none" text-anchor="none" style="mix-blend-mode: normal"><g transform="scale(10.66667,10.66667)"><path d="M8.88477,3.4082c-0.18926,-0.02496 -0.38614,-0.02043 -0.58594,0.01953h-0.00195c-1.00108,0.19971 -1.99932,0.54053 -2.99414,0.94727c-0.65113,0.26673 -1.20669,0.72844 -1.58984,1.32031c-2.32609,3.57492 -2.99278,7.33959 -2.60937,11.03516c0.03904,0.37837 0.24822,0.71839 0.56836,0.92383c1.42276,0.91434 2.91191,1.72536 4.51172,2.28711c0.93688,0.33512 1.98584,-0.06513 2.50391,-0.87305l0.42383,-0.66016c0.91987,0.26884 1.88411,0.42188 2.88086,0.42188c0.99304,0 1.95379,-0.15253 2.87109,-0.41992l0.45313,0.6875c0.00065,0.00065 0.0013,0.0013 0.00195,0.00195c0.52274,0.78865 1.56157,1.17123 2.48047,0.84961c1.60731,-0.56473 3.10063,-1.37938 4.52734,-2.29492c0.32014,-0.20544 0.52932,-0.54545 0.56836,-0.92383c0.37649,-3.62937 -0.27919,-7.32279 -2.50391,-10.83984c-0.0008,-0.00127 -0.00105,-0.00263 -0.00195,-0.00391c-0.02877,-0.06736 -0.06341,-0.13206 -0.10352,-0.19336c-0.00065,-0.0013 -0.0013,-0.00261 -0.00195,-0.00391c-0.38498,-0.59003 -0.93995,-1.04903 -1.58789,-1.31445c-0.00065,0 -0.0013,0 -0.00195,0c-0.99444,-0.40555 -1.9924,-0.74663 -2.99219,-0.94727c-0.79841,-0.16092 -1.53712,0.24286 -2.02344,0.85742c-0.50667,-0.04319 -0.97861,-0.09722 -1.67773,-0.08203c-0.69869,-0.01528 -1.17037,0.03886 -1.67773,0.08203c-0.36385,-0.46011 -0.86972,-0.80206 -1.4375,-0.87695zM8.52148,5.96484l0.08203,0.16016c0.2411,0.47644 0.75819,0.74715 1.28711,0.67383c0.52386,-0.07345 1.15149,-0.11936 2.08008,-0.09766c0.01888,0.00043 0.03776,0.00043 0.05664,0c0.93071,-0.02171 1.55848,0.02248 2.07813,0.0957c0.52866,0.07489 1.04653,-0.19424 1.28906,-0.66992l0.08203,-0.16211c0.70872,0.16333 1.46325,0.39501 2.27149,0.72461c0.18206,0.07458 0.33048,0.19723 0.44141,0.36719c1.88525,2.89778 2.39554,5.78535 2.18945,8.79883c-1.04256,0.63473 -2.08785,1.20397 -3.14844,1.60156l-0.02734,-0.04102c0.00126,-0.00073 0.00265,-0.00122 0.00391,-0.00195c0.59705,-0.3468 0.79992,-1.11193 0.45313,-1.70898c-0.3468,-0.59705 -1.11193,-0.79992 -1.70898,-0.45312c-0.76629,0.44556 -1.59965,0.74938 -2.47461,0.91992c-0.47954,0.07434 -0.97392,0.12075 -1.49023,0.13281c-0.50067,-0.01178 -0.984,-0.05686 -1.45312,-0.12695c-0.88563,-0.16918 -1.72764,-0.47556 -2.50195,-0.92578c-0.17929,-0.10783 -0.38277,-0.16894 -0.5918,-0.17773c-0.57835,-0.02476 -1.09804,0.35078 -1.25609,0.90767c-0.15805,0.55688 0.0869,1.14943 0.59203,1.43218c0.00126,0.00073 0.00265,0.00122 0.00391,0.00195l-0.02344,0.03711c-1.05557,-0.39515 -2.09714,-0.96412 -3.13672,-1.59766c-0.20621,-3.01365 0.3054,-5.90123 2.19141,-8.79883c0,-0.00065 0,-0.0013 0,-0.00195c0.10884,-0.16814 0.26058,-0.29196 0.43945,-0.36523c0.80742,-0.33011 1.56267,-0.56206 2.27148,-0.72461zM8.75,10c-0.961,0 -1.75,0.904 -1.75,2c0,1.096 0.789,2 1.75,2c0.961,0 1.75,-0.904 1.75,-2c0,-1.096 -0.789,-2 -1.75,-2zM15.25,10c-0.961,0 -1.75,0.904 -1.75,2c0,1.096 0.789,2 1.75,2c0.961,0 1.75,-0.904 1.75,-2c0,-1.096 -0.789,-2 -1.75,-2z"></path></g></g></svg>